<svg xmlns="http://www.w3.org/2000/svg" width="179.933" height="147.185" viewBox="0 0 179.933 147.185">
  <g id="house" transform="translate(0 -46.592)">
    <g id="Group_4" data-name="Group 4" transform="translate(0 46.592)">
      <path id="Path_2" data-name="Path 2" d="M179.92,186.4l-.121-2.765a2.561,2.561,0,1,0-5.116.224l.122,2.788c0,.017,0,.034,0,.051a1.842,1.842,0,0,1-1.834,1.962H157.993V141.389l3.862,1.365a17.6,17.6,0,0,1,11.707,15.481l.425,9.712a2.561,2.561,0,0,0,5.116-.224l-.426-9.737c0-.017,0-.034,0-.051a22.715,22.715,0,0,0-15.113-20.009L156.41,135.4c-.042-.018-.081-.04-.124-.055l-21.359-7.549-.011,0c-.079-.027-.158-.051-.238-.071-.04-.011-.081-.018-.122-.027a4.177,4.177,0,0,0-3.987,1.084l-.66.661-5.636-2.829v-4.94a29.224,29.224,0,0,0,4.763-4.131l.052-.056a28.9,28.9,0,0,0,7.316-13.9c.025-.131.049-.262.071-.393s.044-.271.064-.406q.051-.339.089-.678c.006-.054.014-.109.02-.163.026-.245.048-.49.065-.734h1.063a5.993,5.993,0,0,0,5.986-5.986V88.513a5.981,5.981,0,0,0-.077-.943,4.782,4.782,0,0,0,.595-2.313V82.4a4.764,4.764,0,0,0-3.414-4.583v-.4q0-.366-.009-.731a27.315,27.315,0,0,0-7.548-18.212,26.7,26.7,0,0,0-15.916-8.1c-.092-.165-.192-.325-.3-.481-.027-.04-.055-.079-.082-.118q-.157-.228-.33-.442l-.06-.075q-.214-.258-.45-.495l-.017-.016q-.23-.229-.479-.436l-.056-.047a7.376,7.376,0,0,0-1.1-.742l-.1-.058c-.192-.1-.388-.2-.589-.284l-.032-.012c-.186-.078-.376-.146-.569-.209l-.158-.05c-.2-.061-.412-.117-.623-.161l-.036-.006c-.2-.041-.407-.07-.615-.094l-.171-.018c-.221-.02-.443-.034-.668-.034h-2.417c-.225,0-.447.014-.668.034l-.172.018c-.207.024-.412.053-.613.094l-.037.006c-.211.044-.418.1-.622.16l-.158.05c-.193.063-.383.131-.569.208l-.032.013c-.2.085-.4.182-.589.284l-.106.058c-.188.1-.372.214-.55.334h0c-.188.127-.368.263-.543.407l-.056.047q-.248.207-.478.435l-.017.017q-.236.236-.449.494l-.061.076q-.173.213-.33.441c-.027.04-.056.078-.083.119-.1.156-.2.316-.3.481a26.7,26.7,0,0,0-15.916,8.1,27.249,27.249,0,0,0-5.367,8.156L66,52.729a7.932,7.932,0,0,0-10.843.015L39.069,67.9l0-1.772a3.8,3.8,0,0,0-3.8-3.8h-.006L23.2,62.348a3.807,3.807,0,0,0-3.8,3.808L19.434,86.4,2.488,102.36a7.918,7.918,0,0,0,5.193,13.678c.081,0,.162,0,.242,0a7.861,7.861,0,0,0,5.423-2.155l5.739-5.406.025,17.951a2.56,2.56,0,0,0,2.561,2.557h0a2.561,2.561,0,0,0,2.557-2.564L24.2,103.663,60.6,69.37l14.624,13.7v2.186c0,.148.009.3.022.441,0,.027,0,.054.008.081a4.751,4.751,0,0,0,.563,1.8,5.99,5.99,0,0,0-.076.934v6.709a5.993,5.993,0,0,0,5.986,5.986h1.059c.017.253.039.507.066.762.007.072.018.144.026.215q.037.317.083.635.028.191.059.382c.025.151.054.3.082.455q.089.472.2.944c.013.058.026.115.04.173.051.211.106.422.163.633l.035.127a26.656,26.656,0,0,0,1.9,4.862l.026.051q.479.946,1.03,1.864c.049.081.1.162.145.242q.149.243.3.484c.077.121.156.242.235.362.089.135.177.271.268.406q.244.359.5.712c.072.1.147.2.22.3q.189.257.384.51c.071.092.142.184.213.275q.265.337.54.667l.078.095c.2.24.407.476.616.71.073.083.148.164.222.245q.22.242.446.479c.083.088.166.175.25.262q.271.278.549.55c.133.13.268.258.4.386.114.107.227.214.342.319.14.128.28.253.422.377l.227.2a27.845,27.845,0,0,0,2.375,1.836v4.887l-5.634,2.83-.661-.662a4.165,4.165,0,0,0-2.306-1.167q-.143-.022-.287-.035c-.1-.008-.193-.013-.29-.015s-.194,0-.291.006a4.136,4.136,0,0,0-.793.123c-.05.011-.1.02-.15.034-.078.02-.172.048-.24.073l-9.614,3.4-.025-18.213a4.266,4.266,0,0,0-4.262-4.256h-.006l-20.028.028a4.262,4.262,0,0,0-4.256,4.268l.044,31.341-.011.013c-.069.079-.135.16-.2.24-.109.128-.219.254-.325.385-.067.082-.13.166-.2.249-.1.131-.208.261-.309.394-.064.085-.125.173-.189.259-.1.134-.2.266-.293.4-.062.088-.119.177-.18.266-.093.137-.187.273-.278.412-.059.09-.114.183-.171.274-.088.14-.177.279-.261.42-.055.092-.107.186-.161.279-.083.143-.167.286-.247.431-.053.1-.1.194-.154.291-.077.144-.155.288-.228.434-.052.1-.1.206-.15.309-.07.143-.14.285-.207.43-.049.106-.094.213-.141.32-.064.144-.129.288-.189.434-.046.11-.088.221-.132.332-.058.144-.117.288-.171.434-.043.115-.082.231-.123.346-.051.144-.1.288-.153.434-.039.118-.075.237-.112.356-.046.145-.093.289-.136.435-.035.121-.067.244-.1.366-.04.145-.082.29-.119.437-.031.123-.059.248-.088.372-.035.147-.071.293-.1.441-.027.127-.051.256-.076.384-.029.146-.059.292-.086.439s-.043.267-.064.4-.048.287-.068.432-.034.275-.051.413-.037.285-.051.428-.024.28-.036.42-.025.261-.033.392l-16.455.023a.1.1,0,0,1-.1-.1l-.021-15.445a2.56,2.56,0,0,0-2.561-2.557h0a2.561,2.561,0,0,0-2.557,2.564l.021,15.446A5.232,5.232,0,0,0,24.38,163h.007l16.222-.022L39.585,186.4a6.962,6.962,0,0,0,6.946,7.38H172.974a6.963,6.963,0,0,0,6.946-7.38ZM138.64,95.222a.866.866,0,0,1-.865.865h-1.023V90.021h1.888ZM106.364,53.429c0-.009.007-.018.009-.027a2.244,2.244,0,0,1,.52-.959l.018-.02a2.241,2.241,0,0,1,.248-.228l.032-.024a2.246,2.246,0,0,1,.59-.322l.048-.018a2.257,2.257,0,0,1,.316-.081l.058-.009a2.244,2.244,0,0,1,.342-.029h2.417a2.24,2.24,0,0,1,.342.029l.058.009a2.218,2.218,0,0,1,.315.081l.049.018a2.241,2.241,0,0,1,.589.321l.033.024a2.253,2.253,0,0,1,.247.227l.019.021a2.244,2.244,0,0,1,.519.958c0,.009.007.017.009.026a2.233,2.233,0,0,1,.066.532V62.6a2.249,2.249,0,0,1-2.246,2.247h-2.417A2.249,2.249,0,0,1,106.3,62.6V53.96h0A2.247,2.247,0,0,1,106.364,53.429ZM33.947,67.454l.008,5.262L24.547,81.58l-.023-14.113Zm45.166,4.873c-.049.263-.1.526-.138.791-.023.148-.042.3-.063.445-.034.241-.068.483-.1.725-.023.2-.039.407-.058.611s-.038.382-.051.574q-.042.6-.058,1.206-.009.364-.009.731v.4l-.015.005a4.7,4.7,0,0,0-.455.162l-.143.061c-.131.059-.26.123-.384.193-.018.011-.038.018-.057.028L62.347,63.989a2.561,2.561,0,0,0-3.506,0L9.835,110.159A2.8,2.8,0,1,1,6,106.088L58.669,56.471a2.8,2.8,0,0,1,3.83-.005L79.159,72.072C79.142,72.157,79.13,72.242,79.114,72.326ZM81.73,96.087a.866.866,0,0,1-.865-.865v-5.2h1.887v6.066ZM80.347,84.1v-1.35H81.2a2.561,2.561,0,0,0,2.561-2.561V77.41q0-.3.008-.6c.01-.39.032-.781.063-1.171.008-.1.019-.2.028-.3.027-.3.059-.6.1-.9.013-.1.027-.2.041-.293q.07-.475.159-.948c.013-.071.026-.141.04-.212.077-.386.162-.77.259-1.152v-.006A22.141,22.141,0,0,1,89.9,62a21.646,21.646,0,0,1,11.275-6.287V62.6a7.376,7.376,0,0,0,7.368,7.367h2.417a7.376,7.376,0,0,0,7.367-7.367V55.716A21.649,21.649,0,0,1,129.6,62a22.2,22.2,0,0,1,6.133,14.806q.007.3.007.6v2.783a2.561,2.561,0,0,0,2.561,2.561h.854V84.1Zm7.623,17.528c0-.039-.009-.079-.013-.118q-.035-.322-.055-.641c0-.034,0-.068-.007-.1-.014-.246-.021-.49-.021-.733V90.021h43.759v9.961c0,.245-.008.493-.022.741,0,.028,0,.057-.006.085q-.021.327-.056.656c0,.039-.008.077-.013.116-.028.241-.061.482-.1.725v0c-.908,5.477-4.827,11.323-9.63,14.828l-.1.075c-.152.11-.306.215-.46.319-.085.057-.168.117-.253.173l-.136.086c-.156.1-.312.2-.471.3l-.023.016a15.961,15.961,0,0,1-4.4,1.89l-.268.067c-5.462,1.358-6.716,1.355-12.2-.027a15.928,15.928,0,0,1-4.358-1.883l-.009-.006c-.057-.034-.112-.071-.168-.106-.167-.1-.334-.209-.5-.319l-.122-.083C93.031,114.05,88.661,107.544,87.97,101.631Zm9.774,29.446a4.029,4.029,0,0,0,2.608-3.785v-2.877a18.914,18.914,0,0,0,1.887.585,29.812,29.812,0,0,0,7.387,1.189,29.86,29.86,0,0,0,7.3-1.157l.268-.067a18.948,18.948,0,0,0,1.959-.6v2.933a4.029,4.029,0,0,0,2.608,3.785l4.1,2.06c-.049.038-.1.077-.147.115-.113.085-.227.167-.342.25q-.323.235-.652.459-.184.125-.37.247-.336.22-.678.429c-.116.071-.232.144-.349.214q-.418.248-.846.479c-.067.037-.133.076-.2.111q-.529.282-1.07.538c-.1.046-.2.088-.292.133-.266.123-.535.242-.8.356-.13.055-.261.106-.393.159q-.367.147-.739.284c-.137.05-.274.1-.412.148-.257.089-.516.174-.776.255-.124.039-.248.08-.374.117q-.514.153-1.035.285l-.125.033c-.391.1-.785.184-1.181.263-.114.023-.228.041-.342.063-.284.053-.569.1-.856.147-.142.022-.284.041-.426.06q-.4.055-.8.1c-.144.015-.289.031-.434.044-.284.026-.57.046-.856.063-.124.007-.248.017-.374.022-.411.019-.823.03-1.237.03s-.826-.012-1.237-.03c-.125-.006-.248-.015-.373-.022-.287-.017-.573-.037-.858-.063-.145-.013-.289-.028-.433-.044q-.4-.043-.8-.1c-.142-.019-.284-.039-.425-.06-.287-.044-.573-.094-.857-.148-.114-.021-.228-.04-.342-.063-.4-.079-.79-.166-1.181-.264l-.122-.033q-.522-.132-1.038-.286c-.124-.037-.247-.078-.371-.116-.261-.082-.521-.167-.779-.256-.136-.047-.272-.1-.408-.146q-.374-.137-.743-.286c-.13-.052-.259-.1-.388-.157-.274-.115-.544-.236-.814-.36-.094-.043-.189-.084-.283-.129q-.543-.258-1.074-.54c-.063-.034-.125-.07-.188-.1q-.433-.235-.858-.486c-.115-.068-.228-.139-.342-.209q-.346-.212-.687-.435-.182-.119-.361-.242-.334-.227-.662-.466c-.111-.081-.223-.161-.333-.243-.05-.038-.1-.078-.149-.116ZM46.532,188.656a1.842,1.842,0,0,1-1.834-1.962c0-.017,0-.034,0-.051l1.242-28.408a17.624,17.624,0,0,1,4.815-11.016c.027-.025.055-.049.08-.076a17.7,17.7,0,0,1,5.8-3.994l.137-.057c.289-.12.58-.234.875-.339l3.863-1.365v47.267H46.532ZM63.1,135.4l-7.152,2.528q-.4.142-.8.3c-.084.033-.165.07-.248.1l-.194.081c-.113.047-.227.092-.339.142s-.244.113-.366.169-.267.12-.4.184-.245.124-.367.186-.255.126-.381.193-.228.127-.342.189c-.129.072-.26.141-.388.215-.112.065-.222.134-.334.2-.081.049-.163.1-.243.147l-.037-26.163,18.31-.026L69.846,133l-6.626,2.342C63.176,135.358,63.137,135.381,63.1,135.4Zm3.538,53.258V139.579l16.939-5.987,1.96,9.619a13.574,13.574,0,0,0,6.044,8.738l15.616,9.826v26.88Zm27.67-41.04a8.43,8.43,0,0,1-3.753-5.426l-1.21-5.94c.1.08.188.166.284.245a31.519,31.519,0,0,0,20.129,7.165,32.279,32.279,0,0,0,6.072-.577,31.359,31.359,0,0,0,14.341-6.834l-1.21,5.94a8.426,8.426,0,0,1-3.753,5.426l-15.45,9.721Zm58.569,41.04H112.313V161.777l15.616-9.826a13.57,13.57,0,0,0,6.044-8.738l1.96-9.62,16.939,5.987v49.077Z" transform="translate(0 -46.592)" fill="#162c6b"/>
    </g>
  </g>
</svg>
